<mxfile host="app.diagrams.net" modified="2022-04-18T09:49:24.288Z" agent="5.0 (Windows NT 10.0; WOW64) AppleWebKit/537.36 (KHTML, like Gecko) Chrome/78.0.3904.108 Safari/537.36" etag="1XJVlJSoBHLlnGXsiaDO" version="17.4.5" type="github">
  <diagram id="6xTlnyKUP6V_iViVamW2" name="Page-1">
    <mxGraphModel dx="1673" dy="876" grid="0" gridSize="10" guides="1" tooltips="1" connect="1" arrows="1" fold="1" page="0" pageScale="1" pageWidth="827" pageHeight="1169" math="0" shadow="0">
      <root>
        <mxCell id="0" />
        <mxCell id="1" parent="0" />
        <mxCell id="5gA3Xut7VIzO3x2DJAjC-14" style="edgeStyle=orthogonalEdgeStyle;rounded=0;orthogonalLoop=1;jettySize=auto;html=1;entryX=0;entryY=0.5;entryDx=0;entryDy=0;fontColor=#FF1717;fontSize=16;" edge="1" parent="1" source="5gA3Xut7VIzO3x2DJAjC-3" target="5gA3Xut7VIzO3x2DJAjC-4">
          <mxGeometry relative="1" as="geometry" />
        </mxCell>
        <mxCell id="5gA3Xut7VIzO3x2DJAjC-3" value="需求调研" style="rounded=1;whiteSpace=wrap;html=1;fontSize=16;" vertex="1" parent="1">
          <mxGeometry x="100" y="250" width="80" height="40" as="geometry" />
        </mxCell>
        <mxCell id="5gA3Xut7VIzO3x2DJAjC-15" style="edgeStyle=orthogonalEdgeStyle;rounded=0;orthogonalLoop=1;jettySize=auto;html=1;entryX=0;entryY=0.5;entryDx=0;entryDy=0;fontColor=#FF1717;fontSize=16;" edge="1" parent="1" source="5gA3Xut7VIzO3x2DJAjC-4" target="5gA3Xut7VIzO3x2DJAjC-5">
          <mxGeometry relative="1" as="geometry" />
        </mxCell>
        <mxCell id="5gA3Xut7VIzO3x2DJAjC-4" value="客户邮件确认需求" style="rounded=1;whiteSpace=wrap;html=1;fontSize=16;" vertex="1" parent="1">
          <mxGeometry x="220" y="250" width="80" height="40" as="geometry" />
        </mxCell>
        <mxCell id="5gA3Xut7VIzO3x2DJAjC-16" value="" style="edgeStyle=orthogonalEdgeStyle;rounded=0;orthogonalLoop=1;jettySize=auto;html=1;fontColor=#FF1717;fontSize=16;" edge="1" parent="1" source="5gA3Xut7VIzO3x2DJAjC-5" target="5gA3Xut7VIzO3x2DJAjC-6">
          <mxGeometry relative="1" as="geometry" />
        </mxCell>
        <mxCell id="5gA3Xut7VIzO3x2DJAjC-5" value="评估工作量" style="rounded=1;whiteSpace=wrap;html=1;fontSize=16;" vertex="1" parent="1">
          <mxGeometry x="340" y="250" width="80" height="40" as="geometry" />
        </mxCell>
        <mxCell id="5gA3Xut7VIzO3x2DJAjC-17" value="" style="edgeStyle=orthogonalEdgeStyle;rounded=0;orthogonalLoop=1;jettySize=auto;html=1;fontColor=#FF1717;fontSize=16;" edge="1" parent="1" source="5gA3Xut7VIzO3x2DJAjC-6" target="5gA3Xut7VIzO3x2DJAjC-7">
          <mxGeometry relative="1" as="geometry" />
        </mxCell>
        <mxCell id="5gA3Xut7VIzO3x2DJAjC-6" value="签合同" style="rounded=1;whiteSpace=wrap;html=1;fontSize=16;" vertex="1" parent="1">
          <mxGeometry x="460" y="250" width="80" height="40" as="geometry" />
        </mxCell>
        <mxCell id="5gA3Xut7VIzO3x2DJAjC-18" value="" style="edgeStyle=orthogonalEdgeStyle;rounded=0;orthogonalLoop=1;jettySize=auto;html=1;fontColor=#FF1717;fontSize=16;" edge="1" parent="1" source="5gA3Xut7VIzO3x2DJAjC-7" target="5gA3Xut7VIzO3x2DJAjC-8">
          <mxGeometry relative="1" as="geometry" />
        </mxCell>
        <mxCell id="5gA3Xut7VIzO3x2DJAjC-7" value="原型/需求文档" style="rounded=1;whiteSpace=wrap;html=1;fontSize=16;" vertex="1" parent="1">
          <mxGeometry x="580" y="250" width="80" height="40" as="geometry" />
        </mxCell>
        <mxCell id="5gA3Xut7VIzO3x2DJAjC-11" style="edgeStyle=orthogonalEdgeStyle;rounded=0;orthogonalLoop=1;jettySize=auto;html=1;entryX=0;entryY=0.5;entryDx=0;entryDy=0;fontSize=16;" edge="1" parent="1" source="5gA3Xut7VIzO3x2DJAjC-8" target="5gA3Xut7VIzO3x2DJAjC-9">
          <mxGeometry relative="1" as="geometry" />
        </mxCell>
        <mxCell id="5gA3Xut7VIzO3x2DJAjC-12" style="edgeStyle=orthogonalEdgeStyle;rounded=0;orthogonalLoop=1;jettySize=auto;html=1;entryX=0;entryY=0.5;entryDx=0;entryDy=0;fontSize=16;" edge="1" parent="1" source="5gA3Xut7VIzO3x2DJAjC-8" target="5gA3Xut7VIzO3x2DJAjC-10">
          <mxGeometry relative="1" as="geometry" />
        </mxCell>
        <mxCell id="5gA3Xut7VIzO3x2DJAjC-8" value="客户确认" style="rounded=1;whiteSpace=wrap;html=1;fontSize=16;" vertex="1" parent="1">
          <mxGeometry x="700" y="250" width="80" height="40" as="geometry" />
        </mxCell>
        <mxCell id="5gA3Xut7VIzO3x2DJAjC-13" value="修改" style="edgeStyle=orthogonalEdgeStyle;rounded=0;orthogonalLoop=1;jettySize=auto;html=1;entryX=0.5;entryY=0;entryDx=0;entryDy=0;fontColor=#FF1717;fontSize=16;" edge="1" parent="1" source="5gA3Xut7VIzO3x2DJAjC-9" target="5gA3Xut7VIzO3x2DJAjC-7">
          <mxGeometry relative="1" as="geometry">
            <Array as="points">
              <mxPoint x="845" y="190" />
              <mxPoint x="620" y="190" />
            </Array>
          </mxGeometry>
        </mxCell>
        <mxCell id="5gA3Xut7VIzO3x2DJAjC-9" value="不通过" style="rounded=1;whiteSpace=wrap;html=1;fontSize=16;" vertex="1" parent="1">
          <mxGeometry x="820" y="220" width="50" height="30" as="geometry" />
        </mxCell>
        <mxCell id="5gA3Xut7VIzO3x2DJAjC-25" value="" style="edgeStyle=orthogonalEdgeStyle;rounded=0;orthogonalLoop=1;jettySize=auto;html=1;fontColor=#FF1717;fontSize=16;" edge="1" parent="1" source="5gA3Xut7VIzO3x2DJAjC-10" target="5gA3Xut7VIzO3x2DJAjC-19">
          <mxGeometry relative="1" as="geometry" />
        </mxCell>
        <mxCell id="5gA3Xut7VIzO3x2DJAjC-10" value="通过" style="rounded=1;whiteSpace=wrap;html=1;fontSize=16;" vertex="1" parent="1">
          <mxGeometry x="820" y="290" width="50" height="30" as="geometry" />
        </mxCell>
        <mxCell id="5gA3Xut7VIzO3x2DJAjC-22" value="" style="edgeStyle=orthogonalEdgeStyle;rounded=0;orthogonalLoop=1;jettySize=auto;html=1;fontColor=#FF1717;fontSize=16;" edge="1" parent="1" source="5gA3Xut7VIzO3x2DJAjC-19" target="5gA3Xut7VIzO3x2DJAjC-21">
          <mxGeometry relative="1" as="geometry" />
        </mxCell>
        <mxCell id="5gA3Xut7VIzO3x2DJAjC-24" style="edgeStyle=orthogonalEdgeStyle;rounded=0;orthogonalLoop=1;jettySize=auto;html=1;entryX=0;entryY=0.5;entryDx=0;entryDy=0;fontColor=#FF1717;fontSize=16;" edge="1" parent="1" source="5gA3Xut7VIzO3x2DJAjC-19" target="5gA3Xut7VIzO3x2DJAjC-20">
          <mxGeometry relative="1" as="geometry" />
        </mxCell>
        <mxCell id="5gA3Xut7VIzO3x2DJAjC-19" value="需求评审" style="rounded=1;whiteSpace=wrap;html=1;fontSize=16;" vertex="1" parent="1">
          <mxGeometry x="910" y="285" width="80" height="40" as="geometry" />
        </mxCell>
        <mxCell id="5gA3Xut7VIzO3x2DJAjC-26" value="修改" style="edgeStyle=orthogonalEdgeStyle;rounded=0;orthogonalLoop=1;jettySize=auto;html=1;entryX=0.5;entryY=0;entryDx=0;entryDy=0;fontColor=#FF1717;fontSize=16;" edge="1" parent="1" source="5gA3Xut7VIzO3x2DJAjC-20" target="5gA3Xut7VIzO3x2DJAjC-19">
          <mxGeometry x="-0.1351" relative="1" as="geometry">
            <Array as="points">
              <mxPoint x="1055" y="230" />
              <mxPoint x="950" y="230" />
            </Array>
            <mxPoint as="offset" />
          </mxGeometry>
        </mxCell>
        <mxCell id="5gA3Xut7VIzO3x2DJAjC-20" value="不通过" style="rounded=1;whiteSpace=wrap;html=1;fontSize=16;" vertex="1" parent="1">
          <mxGeometry x="1030" y="255" width="50" height="30" as="geometry" />
        </mxCell>
        <mxCell id="5gA3Xut7VIzO3x2DJAjC-28" value="" style="edgeStyle=orthogonalEdgeStyle;rounded=0;orthogonalLoop=1;jettySize=auto;html=1;fontColor=#FF1717;fontSize=16;" edge="1" parent="1" source="5gA3Xut7VIzO3x2DJAjC-21" target="5gA3Xut7VIzO3x2DJAjC-27">
          <mxGeometry relative="1" as="geometry" />
        </mxCell>
        <mxCell id="5gA3Xut7VIzO3x2DJAjC-21" value="通过" style="rounded=1;whiteSpace=wrap;html=1;fontSize=16;" vertex="1" parent="1">
          <mxGeometry x="1030" y="325" width="50" height="30" as="geometry" />
        </mxCell>
        <mxCell id="5gA3Xut7VIzO3x2DJAjC-27" value="交付开发、测试" style="rounded=1;whiteSpace=wrap;html=1;fontSize=16;" vertex="1" parent="1">
          <mxGeometry x="1120" y="320" width="80" height="40" as="geometry" />
        </mxCell>
      </root>
    </mxGraphModel>
  </diagram>
</mxfile>
